<svg width="283" height="110" viewBox="0 0 283 110" fill="none" xmlns="http://www.w3.org/2000/svg">
<mask id="path-1-outside-1_153_1341" maskUnits="userSpaceOnUse" x="0" y="0" width="283" height="110" fill="black">
<rect fill="white" width="283" height="110"/>
<path d="M24.0215 4.39258C24.0215 4.68555 23.9727 4.96224 23.875 5.22266C23.7773 5.48307 23.6797 5.75977 23.582 6.05273C23.0938 7.51758 22.5566 8.94987 21.9707 10.3496C21.4173 11.7493 20.929 13.1816 20.5059 14.6465C19.7572 17.2181 19.1549 20.2454 18.6992 23.7285C18.2435 27.179 17.8854 30.8737 17.625 34.8125C17.3646 38.7188 17.2018 42.7552 17.1367 46.9219C17.0716 51.056 17.0879 55.1087 17.1855 59.0801C19.8223 59.5684 22.5729 60.0078 25.4375 60.3984C28.3346 60.7565 31.1504 61.0658 33.8848 61.3262C36.6191 61.5866 39.1908 61.7982 41.5996 61.9609C44.041 62.0911 46.1406 62.1562 47.8984 62.1562H49.8027C49.1842 57.2083 48.7611 52.293 48.5332 47.4102C48.3053 42.5273 48.1914 37.9538 48.1914 33.6895C48.1914 32.4525 48.2077 30.9714 48.2402 29.2461C48.2728 27.5208 48.3704 25.6979 48.5332 23.7773C48.696 21.8242 48.9238 19.8548 49.2168 17.8691C49.5423 15.8509 49.9818 13.9629 50.5352 12.2051C51.0885 10.4147 51.7721 8.81966 52.5859 7.41992C53.3997 5.98763 54.4089 4.89714 55.6133 4.14844C56.1992 3.79036 56.834 3.46484 57.5176 3.17188C58.2012 2.84635 58.901 2.68359 59.6172 2.68359C60.6589 2.68359 61.1797 3.20443 61.1797 4.24609C61.1797 4.57161 61.1309 4.88086 61.0332 5.17383C60.9681 5.4668 60.8867 5.75977 60.7891 6.05273C60.3008 7.48503 59.7799 8.90104 59.2266 10.3008C58.6732 11.668 58.1686 13.084 57.7129 14.5488C56.9967 16.8926 56.3945 19.5618 55.9062 22.5566C55.4505 25.5189 55.0762 28.6764 54.7832 32.0293C54.5228 35.3822 54.3438 38.849 54.2461 42.4297C54.1484 46.0104 54.1159 49.5749 54.1484 53.123C54.181 56.6387 54.2624 60.0729 54.3926 63.4258C54.5553 66.7786 54.7507 69.9036 54.9785 72.8008C55.2064 75.6979 55.4505 78.2858 55.7109 80.5645C56.0039 82.8757 56.2969 84.7474 56.5898 86.1797L55.6133 86.5703C54.2786 83.3151 53.1556 79.7832 52.2441 75.9746C51.3652 72.166 50.6491 68.2272 50.0957 64.1582C48.0775 64.7116 45.75 65.1836 43.1133 65.5742C40.4766 65.9323 37.791 66.2253 35.0566 66.4531C32.3548 66.6484 29.7344 66.7949 27.1953 66.8926C24.6888 66.9577 22.5566 66.9902 20.7988 66.9902H17.4785C17.6738 71.222 17.9342 75.0143 18.2598 78.3672C18.5853 81.7201 18.9596 84.3568 19.3828 86.2773L18.4062 86.668C17.2344 83.7708 16.2253 80.6458 15.3789 77.293C14.5326 73.9401 13.8164 70.4733 13.2305 66.8926C12.2865 66.8275 11.375 66.7298 10.4961 66.5996C9.61719 66.4694 8.75456 66.2904 7.9082 66.0625C7.06185 65.8997 6.2806 65.5254 5.56445 64.9395C4.84831 64.3535 4.22982 63.6699 3.70898 62.8887C3.18815 62.1074 2.76497 61.2773 2.43945 60.3984C2.14648 59.487 2 58.6081 2 57.7617C2 57.306 2.09766 56.8503 2.29297 56.3945C2.48828 55.9062 2.89518 55.6621 3.51367 55.6621C3.9694 55.6621 4.39258 55.7598 4.7832 55.9551C5.75977 56.3457 6.85026 56.7201 8.05469 57.0781C9.29167 57.4036 10.6426 57.7292 12.1074 58.0547C11.6517 53.7904 11.3262 49.5911 11.1309 45.457C10.9681 41.3229 10.8867 37.4329 10.8867 33.7871C10.8867 32.5176 10.903 31.0202 10.9355 29.2949C11.0007 27.5697 11.0983 25.7467 11.2285 23.8262C11.3913 21.873 11.6354 19.9036 11.9609 17.918C12.2865 15.8997 12.7259 14.0117 13.2793 12.2539C13.8327 10.4961 14.5163 8.91732 15.3301 7.51758C16.1764 6.08529 17.2018 4.99479 18.4062 4.24609C18.9596 3.88802 19.5781 3.54622 20.2617 3.2207C20.9779 2.86263 21.694 2.68359 22.4102 2.68359C22.8984 2.68359 23.2891 2.83008 23.582 3.12305C23.875 3.41602 24.0215 3.83919 24.0215 4.39258Z"/>
<path d="M91.7949 55.5645C91.7949 57.8431 91.4206 59.959 90.6719 61.9121C89.9232 63.8652 88.8652 65.5579 87.498 66.9902C86.1309 68.4225 84.487 69.5456 82.5664 70.3594C80.6784 71.1732 78.5788 71.5801 76.2676 71.5801C74.2168 71.5801 72.3613 71.1895 70.7012 70.4082C69.0736 69.6595 67.6738 68.6341 66.502 67.332C65.3301 66.0299 64.4349 64.5163 63.8164 62.791C63.1979 61.0332 62.8887 59.1615 62.8887 57.1758C62.8887 55.5156 63.1165 53.9368 63.5723 52.4395C64.0605 50.9421 64.7279 49.5586 65.5742 48.2891C66.4206 46.987 67.4297 45.7988 68.6016 44.7246C69.7734 43.6178 71.043 42.625 72.4102 41.7461L72.9961 42.1855C71.6289 43.7806 70.5547 45.5384 69.7734 47.459C68.9922 49.3796 68.6016 51.4141 68.6016 53.5625C68.6016 55.125 68.8294 56.7201 69.2852 58.3477C69.7734 59.9427 70.4733 61.4076 71.3848 62.7422C72.2962 64.0768 73.4355 65.1673 74.8027 66.0137C76.1699 66.86 77.7324 67.2832 79.4902 67.2832C80.597 67.2832 81.6387 67.0553 82.6152 66.5996C83.5918 66.1439 84.4382 65.5254 85.1543 64.7441C85.903 63.9629 86.4889 63.084 86.9121 62.1074C87.3678 61.0983 87.5957 60.0566 87.5957 58.9824C87.5957 57.9408 87.4329 56.9316 87.1074 55.9551C86.8145 54.946 86.3913 54.0182 85.8379 53.1719C85.2845 52.293 84.6172 51.5117 83.8359 50.8281C83.0547 50.112 82.2083 49.526 81.2969 49.0703C80.776 48.8099 80.2715 48.6146 79.7832 48.4844C79.3275 48.3542 78.8229 48.2077 78.2695 48.0449C78.0417 48.0124 77.7975 47.9635 77.5371 47.8984C77.2767 47.8008 77.0326 47.7031 76.8047 47.6055C76.5768 47.4753 76.3815 47.3125 76.2188 47.1172C76.056 46.9219 75.9746 46.6777 75.9746 46.3848C75.9746 45.7988 76.1862 45.2617 76.6094 44.7734C77.0326 44.2852 77.5371 43.862 78.123 43.5039C78.709 43.1133 79.3275 42.8203 79.9785 42.625C80.6296 42.3971 81.1992 42.2832 81.6875 42.2832C83.3477 42.2832 84.8125 42.7064 86.082 43.5527C87.3516 44.3991 88.4095 45.4733 89.2559 46.7754C90.1022 48.0775 90.737 49.5098 91.1602 51.0723C91.5833 52.6348 91.7949 54.1322 91.7949 55.5645Z"/>
<path d="M138.182 62.9863C137.563 64.1582 136.896 65.2812 136.18 66.3555C135.496 67.4297 134.715 68.3737 133.836 69.1875C132.957 70.0013 131.964 70.6523 130.857 71.1406C129.751 71.6289 128.481 71.873 127.049 71.873C125.421 71.873 124.021 71.4661 122.85 70.6523C121.678 69.8711 120.669 68.8294 119.822 67.5273C119.008 66.1927 118.341 64.679 117.82 62.9863C117.332 61.2936 116.925 59.5684 116.6 57.8105C116.274 56.0527 116.03 54.3275 115.867 52.6348C115.704 50.9095 115.558 49.3633 115.428 47.9961C114.809 48.4844 114.061 49.4284 113.182 50.8281C112.303 52.1953 111.408 53.8066 110.496 55.6621C109.585 57.5176 108.706 59.5358 107.859 61.7168C107.046 63.8978 106.378 66.0462 105.857 68.1621C105.76 68.6178 105.597 69.0898 105.369 69.5781C105.174 70.0664 104.913 70.5059 104.588 70.8965C104.295 71.3197 103.937 71.6615 103.514 71.9219C103.09 72.2148 102.618 72.3613 102.098 72.3613C101.251 72.3613 100.633 72.0684 100.242 71.4824C99.8841 70.8965 99.6237 70.2292 99.4609 69.4805C98.5169 65.3464 97.8496 61.3913 97.459 57.6152C97.1009 53.8392 96.9219 50.0632 96.9219 46.2871C96.9219 45.3757 97.0684 44.5944 97.3613 43.9434C97.6868 43.2598 98.11 42.7064 98.6309 42.2832C99.1517 41.8275 99.7702 41.502 100.486 41.3066C101.202 41.0788 101.951 40.9648 102.732 40.9648C102.83 40.9648 102.977 40.9648 103.172 40.9648C103.4 40.9648 103.611 40.9974 103.807 41.0625C104.002 41.0951 104.165 41.1602 104.295 41.2578C104.425 41.3555 104.474 41.4857 104.441 41.6484C103.595 45.9128 103.188 50.2585 103.221 54.6855C103.253 59.0801 103.481 63.3118 103.904 67.3809C104.262 65.7533 104.783 63.9141 105.467 61.8633C106.183 59.7799 106.997 57.6966 107.908 55.6133C108.852 53.4974 109.861 51.4954 110.936 49.6074C112.042 47.6868 113.165 46.0755 114.305 44.7734C114.858 44.1549 115.411 43.6341 115.965 43.2109C116.551 42.7552 117.267 42.5273 118.113 42.5273C118.602 42.5273 119.008 42.625 119.334 42.8203C119.66 43.0156 119.92 43.2598 120.115 43.5527C120.343 43.8457 120.506 44.1875 120.604 44.5781C120.734 44.9362 120.831 45.2943 120.896 45.6523C121.059 46.5964 121.222 47.8171 121.385 49.3145C121.548 50.8118 121.743 52.4069 121.971 54.0996C122.231 55.7923 122.54 57.5013 122.898 59.2266C123.257 60.9193 123.712 62.4655 124.266 63.8652C124.819 65.2324 125.486 66.3555 126.268 67.2344C127.049 68.1133 127.977 68.5527 129.051 68.5527C129.93 68.5527 130.776 68.39 131.59 68.0645C132.436 67.7064 133.234 67.2669 133.982 66.7461C134.731 66.1927 135.431 65.5742 136.082 64.8906C136.733 64.1745 137.319 63.4746 137.84 62.791L138.182 62.9863Z"/>
<path d="M166.941 62.9863C166.095 64.2233 165.07 65.3789 163.865 66.4531C162.693 67.5273 161.391 68.4551 159.959 69.2363C158.559 70.0176 157.078 70.6361 155.516 71.0918C153.986 71.5475 152.439 71.7754 150.877 71.7754C148.663 71.7754 146.596 71.4824 144.676 70.8965C142.755 70.3431 141.079 69.4805 139.646 68.3086C138.214 67.1367 137.091 65.6719 136.277 63.9141C135.464 62.1237 135.057 60.0404 135.057 57.6641C135.057 55.3203 135.48 53.1393 136.326 51.1211C137.205 49.0703 138.393 47.2962 139.891 45.7988C141.421 44.2689 143.211 43.0645 145.262 42.1855C147.312 41.3066 149.51 40.8672 151.854 40.8672C152.96 40.8672 153.986 41.0299 154.93 41.3555C155.906 41.6484 156.753 42.1042 157.469 42.7227C158.185 43.3086 158.738 44.041 159.129 44.9199C159.552 45.7988 159.764 46.8079 159.764 47.9473C159.764 49.3145 159.487 50.5189 158.934 51.5605C158.38 52.6022 157.648 53.5137 156.736 54.2949C155.825 55.0762 154.783 55.7272 153.611 56.248C152.472 56.7689 151.268 57.1921 149.998 57.5176C148.761 57.8431 147.524 58.0872 146.287 58.25C145.083 58.3802 143.976 58.4453 142.967 58.4453H141.795C142.218 61.4076 143.39 63.6699 145.311 65.2324C147.231 66.7949 149.884 67.5762 153.27 67.5762C155.678 67.5762 158.022 67.153 160.301 66.3066C162.612 65.4603 164.695 64.2884 166.551 62.791L166.941 62.9863ZM141.648 56.9805H142.869C144.041 56.9805 145.245 56.8014 146.482 56.4434C147.719 56.0527 148.826 55.4993 149.803 54.7832C150.812 54.0345 151.642 53.123 152.293 52.0488C152.944 50.9746 153.27 49.7539 153.27 48.3867C153.27 47.0521 152.977 45.9453 152.391 45.0664C151.837 44.1875 150.861 43.748 149.461 43.748C148.029 43.748 146.808 44.1875 145.799 45.0664C144.822 45.9128 144.025 46.9707 143.406 48.2402C142.788 49.4772 142.332 50.7956 142.039 52.1953C141.779 53.5625 141.648 54.7832 141.648 55.8574V56.9805Z"/>
<path d="M191.844 59.4707C191.844 61.1634 191.535 62.7585 190.916 64.2559C190.298 65.7533 189.435 67.0553 188.328 68.1621C187.221 69.2689 185.919 70.1478 184.422 70.7988C182.957 71.4499 181.362 71.7754 179.637 71.7754C178.497 71.7754 177.374 71.5964 176.268 71.2383C175.161 70.8802 174.135 70.3757 173.191 69.7246C172.28 69.041 171.482 68.2272 170.799 67.2832C170.115 66.3392 169.627 65.2975 169.334 64.1582L170.457 63.8652C171.303 64.9069 172.28 65.7695 173.387 66.4531C174.526 67.1367 175.812 67.4785 177.244 67.4785C178.449 67.4785 179.555 67.2181 180.564 66.6973C181.606 66.1764 182.485 65.4928 183.201 64.6465C183.95 63.8001 184.52 62.8236 184.91 61.7168C185.333 60.5775 185.545 59.4219 185.545 58.25C185.545 56.8503 185.35 55.6947 184.959 54.7832C184.568 53.8392 184.048 53.0579 183.396 52.4395C182.778 51.7884 182.078 51.235 181.297 50.7793C180.516 50.291 179.718 49.8027 178.904 49.3145C178.123 48.8262 177.358 48.2728 176.609 47.6543C175.893 47.0358 175.275 46.2383 174.754 45.2617C174.721 47.1823 174.396 49.2005 173.777 51.3164C173.159 53.4323 172.312 55.4831 171.238 57.4688C170.197 59.4544 168.992 61.3099 167.625 63.0352C166.258 64.7604 164.809 66.209 163.279 67.3809L162.889 66.6973C163.93 65.5905 164.842 64.207 165.623 62.5469C166.404 60.8867 167.039 59.1452 167.527 57.3223C168.048 55.4668 168.423 53.6113 168.65 51.7559C168.911 49.9004 169.041 48.2077 169.041 46.6777C169.041 45.8639 168.96 45.0664 168.797 44.2852C168.634 43.5039 168.553 42.7389 168.553 41.9902C168.553 41.0788 168.813 40.3789 169.334 39.8906C169.887 39.4023 170.587 39.1582 171.434 39.1582C172.085 39.1582 172.605 39.3047 172.996 39.5977C173.387 39.8906 173.745 40.2812 174.07 40.7695C174.396 41.2253 174.721 41.7624 175.047 42.3809C175.372 42.9668 175.779 43.5853 176.268 44.2363C176.788 44.8548 177.423 45.4733 178.172 46.0918C178.953 46.6777 179.946 47.1986 181.15 47.6543C182.55 48.1751 183.885 48.7773 185.154 49.4609C186.456 50.112 187.596 50.8932 188.572 51.8047C189.581 52.7161 190.379 53.8066 190.965 55.0762C191.551 56.3132 191.844 57.778 191.844 59.4707Z"/>
<path d="M227.586 62.9863C226.87 64.1908 226.023 65.3138 225.047 66.3555C224.103 67.3971 223.045 68.3086 221.873 69.0898C220.734 69.8711 219.497 70.4733 218.162 70.8965C216.827 71.3522 215.444 71.5801 214.012 71.5801C211.896 71.5801 210.024 71.222 208.396 70.5059C206.801 69.7897 205.418 68.8294 204.246 67.625C203.074 66.388 202.098 64.9557 201.316 63.3281C200.535 61.7005 199.917 60.0078 199.461 58.25C199.005 56.4596 198.68 54.6367 198.484 52.7812C198.289 50.9258 198.191 49.1517 198.191 47.459C198.191 45.8965 198.257 44.3014 198.387 42.6738C198.517 41.0137 198.712 39.321 198.973 37.5957C197.964 37.6283 196.971 37.6445 195.994 37.6445C195.05 37.6445 194.106 37.6445 193.162 37.6445C192.544 37.6445 191.844 37.6283 191.062 37.5957C190.281 37.5632 189.549 37.4329 188.865 37.2051C188.182 36.9772 187.612 36.6354 187.156 36.1797C186.701 35.724 186.473 35.0566 186.473 34.1777C186.473 33.6895 186.57 33.2988 186.766 33.0059C186.928 32.7129 187.173 32.5013 187.498 32.3711C187.791 32.2083 188.149 32.1107 188.572 32.0781C188.963 32.013 189.37 31.9805 189.793 31.9805C190.281 31.9805 191.437 32.0618 193.26 32.2246C195.083 32.3874 197.28 32.5664 199.852 32.7617C200.665 28.9206 201.707 25.1445 202.977 21.4336C204.279 17.7227 205.743 14.3372 207.371 11.2773H208.055C207.013 14.8255 206.085 18.4062 205.271 22.0195C204.49 25.6328 203.904 29.2949 203.514 33.0059C205.89 33.1686 208.331 33.3151 210.838 33.4453C213.377 33.543 215.851 33.5918 218.26 33.5918C221.808 33.5918 224.689 33.5592 226.902 33.4941C229.116 33.429 230.857 33.3477 232.127 33.25C233.624 33.1198 234.747 32.9896 235.496 32.8594L235.691 33.6895C233.738 34.1452 231.508 34.5846 229.002 35.0078C226.495 35.3984 223.826 35.7565 220.994 36.082C218.162 36.375 215.232 36.6354 212.205 36.8633C209.178 37.0911 206.167 37.2702 203.172 37.4004C203.107 38.0514 203.074 38.7188 203.074 39.4023C203.074 40.0534 203.074 40.7044 203.074 41.3555C203.074 42.918 203.139 44.6432 203.27 46.5312C203.432 48.4193 203.709 50.3236 204.1 52.2441C204.49 54.1322 205.011 55.9876 205.662 57.8105C206.346 59.6009 207.225 61.196 208.299 62.5957C209.406 63.9629 210.724 65.0697 212.254 65.916C213.784 66.7624 215.59 67.1855 217.674 67.1855C219.594 67.1855 221.32 66.7624 222.85 65.916C224.412 65.0697 225.893 64.028 227.293 62.791L227.586 62.9863Z"/>
<path d="M251.365 64.5977C250.324 66.7461 248.859 68.4551 246.971 69.7246C245.083 70.9616 242.934 71.5801 240.525 71.5801C238.54 71.5801 236.766 70.9779 235.203 69.7734C233.641 68.569 232.257 66.9902 231.053 65.0371C229.881 63.084 228.872 60.8867 228.025 58.4453C227.212 55.9714 226.528 53.4648 225.975 50.9258C225.454 48.3867 225.063 45.9453 224.803 43.6016C224.575 41.2253 224.461 39.1582 224.461 37.4004C224.461 35.252 224.575 32.8919 224.803 30.3203C225.031 27.7487 225.405 25.1608 225.926 22.5566C226.447 19.9199 227.114 17.3646 227.928 14.8906C228.774 12.4167 229.783 10.2357 230.955 8.34766C232.16 6.42708 233.543 4.89714 235.105 3.75781C236.668 2.58594 238.458 2 240.477 2C242.202 2 243.602 2.50456 244.676 3.51367C245.75 4.52279 246.596 5.77604 247.215 7.27344C247.833 8.73828 248.24 10.3008 248.436 11.9609C248.663 13.6211 248.777 15.1022 248.777 16.4043C248.777 19.9199 248.354 23.3867 247.508 26.8047C246.694 30.1901 245.555 33.3965 244.09 36.4238C242.658 39.4186 240.965 42.153 239.012 44.627C237.059 47.0684 234.959 49.1191 232.713 50.7793C233.169 52.9603 233.706 55.0924 234.324 57.1758C234.975 59.2266 235.757 61.0658 236.668 62.6934C237.579 64.2884 238.621 65.5905 239.793 66.5996C240.997 67.5762 242.365 68.0645 243.895 68.0645C245.424 68.0645 246.743 67.7552 247.85 67.1367C248.956 66.5182 249.982 65.6068 250.926 64.4023L251.365 64.5977ZM231.248 34.4707C231.215 35.1868 231.199 36.0658 231.199 37.1074C231.232 38.1491 231.281 39.3047 231.346 40.5742C231.443 41.8112 231.574 43.1458 231.736 44.5781C231.899 46.0104 232.111 47.4753 232.371 48.9727C234.552 47.0195 236.408 44.8548 237.938 42.4785C239.467 40.1022 240.721 37.5469 241.697 34.8125C242.674 32.0456 243.374 29.1484 243.797 26.1211C244.253 23.0612 244.48 19.8874 244.48 16.5996C244.48 16.1764 244.464 15.623 244.432 14.9395C244.432 14.2559 244.383 13.5234 244.285 12.7422C244.188 11.9609 244.041 11.1797 243.846 10.3984C243.683 9.61719 243.439 8.91732 243.113 8.29883C242.82 7.64779 242.43 7.12695 241.941 6.73633C241.486 6.31315 240.932 6.10156 240.281 6.10156C239.044 6.10156 237.954 6.72005 237.01 7.95703C236.098 9.16146 235.301 10.7077 234.617 12.5957C233.966 14.4837 233.413 16.5671 232.957 18.8457C232.534 21.1243 232.192 23.3216 231.932 25.4375C231.671 27.5208 231.492 29.3926 231.395 31.0527C231.297 32.7129 231.248 33.8522 231.248 34.4707Z"/>
<path d="M281.443 84.7637C281.443 86.6191 281.264 88.4746 280.906 90.3301C280.548 92.1855 280.011 93.9759 279.295 95.7012C278.611 97.459 277.749 99.0866 276.707 100.584C275.665 102.114 274.477 103.432 273.143 104.539C271.808 105.646 270.311 106.525 268.65 107.176C267.023 107.827 265.249 108.152 263.328 108.152C261.538 108.152 259.845 107.794 258.25 107.078C256.655 106.362 255.255 105.402 254.051 104.197C252.879 102.993 251.951 101.577 251.268 99.9492C250.584 98.3542 250.242 96.6615 250.242 94.8711C250.242 92.918 250.633 91.0462 251.414 89.2559C252.228 87.4655 253.286 85.8216 254.588 84.3242C255.89 82.8268 257.355 81.5085 258.982 80.3691C260.643 79.2298 262.335 78.3346 264.061 77.6836L264.354 78.2695C261.196 79.9948 258.755 82.3223 257.029 85.252C255.304 88.1816 254.441 91.4531 254.441 95.0664C254.441 96.5312 254.637 97.931 255.027 99.2656C255.451 100.633 256.069 101.837 256.883 102.879C257.697 103.921 258.706 104.751 259.91 105.369C261.147 106.02 262.563 106.346 264.158 106.346C266.372 106.346 268.211 105.743 269.676 104.539C271.141 103.335 272.312 101.821 273.191 99.998C274.07 98.2077 274.689 96.2546 275.047 94.1387C275.438 92.0228 275.633 90.0371 275.633 88.1816C275.633 86.196 275.47 84.2428 275.145 82.3223C274.852 80.4017 274.477 78.4811 274.021 76.5605C273.598 74.64 273.159 72.7194 272.703 70.7988C272.247 68.8783 271.873 66.9414 271.58 64.9883C270.896 65.8021 270.164 66.5833 269.383 67.332C268.602 68.0482 267.755 68.6829 266.844 69.2363C265.965 69.7572 265.021 70.1641 264.012 70.457C263.003 70.7826 261.945 70.9453 260.838 70.9453C259.178 70.9453 257.713 70.6361 256.443 70.0176C255.206 69.4316 254.165 68.6178 253.318 67.5762C252.472 66.5345 251.821 65.3301 251.365 63.9629C250.942 62.5957 250.73 61.1309 250.73 59.5684C250.73 57.8105 250.975 56.0853 251.463 54.3926C251.951 52.6999 252.635 51.1048 253.514 49.6074C254.393 48.11 255.434 46.7103 256.639 45.4082C257.843 44.1061 259.145 42.9668 260.545 41.9902L261.131 42.2832C259.731 44.3014 258.624 46.4824 257.811 48.8262C257.029 51.1374 256.639 53.5137 256.639 55.9551C256.639 56.9967 256.753 58.1198 256.98 59.3242C257.208 60.5286 257.566 61.6354 258.055 62.6445C258.576 63.6536 259.259 64.5 260.105 65.1836C260.984 65.8346 262.059 66.1602 263.328 66.1602C264.858 66.1602 266.29 65.8346 267.625 65.1836C268.96 64.5 270.18 63.6374 271.287 62.5957C271.189 61.3913 271.141 60.1868 271.141 58.9824C271.141 57.3223 271.255 55.597 271.482 53.8066C271.71 52.0163 272.117 50.3073 272.703 48.6797C273.322 47.0195 274.152 45.5221 275.193 44.1875C276.235 42.8203 277.586 41.7135 279.246 40.8672L279.637 41.0625C278.855 41.8763 278.204 42.7878 277.684 43.7969C277.163 44.7734 276.74 45.7988 276.414 46.873C276.121 47.9473 275.91 49.054 275.779 50.1934C275.682 51.3001 275.633 52.3906 275.633 53.4648C275.633 56.4596 275.926 59.2428 276.512 61.8145C277.13 64.3861 277.798 66.9089 278.514 69.3828C279.262 71.8568 279.93 74.3307 280.516 76.8047C281.134 79.3112 281.443 81.9642 281.443 84.7637Z"/>
</mask>
<path d="M24.0215 4.39258C24.0215 4.68555 23.9727 4.96224 23.875 5.22266C23.7773 5.48307 23.6797 5.75977 23.582 6.05273C23.0938 7.51758 22.5566 8.94987 21.9707 10.3496C21.4173 11.7493 20.929 13.1816 20.5059 14.6465C19.7572 17.2181 19.1549 20.2454 18.6992 23.7285C18.2435 27.179 17.8854 30.8737 17.625 34.8125C17.3646 38.7188 17.2018 42.7552 17.1367 46.9219C17.0716 51.056 17.0879 55.1087 17.1855 59.0801C19.8223 59.5684 22.5729 60.0078 25.4375 60.3984C28.3346 60.7565 31.1504 61.0658 33.8848 61.3262C36.6191 61.5866 39.1908 61.7982 41.5996 61.9609C44.041 62.0911 46.1406 62.1562 47.8984 62.1562H49.8027C49.1842 57.2083 48.7611 52.293 48.5332 47.4102C48.3053 42.5273 48.1914 37.9538 48.1914 33.6895C48.1914 32.4525 48.2077 30.9714 48.2402 29.2461C48.2728 27.5208 48.3704 25.6979 48.5332 23.7773C48.696 21.8242 48.9238 19.8548 49.2168 17.8691C49.5423 15.8509 49.9818 13.9629 50.5352 12.2051C51.0885 10.4147 51.7721 8.81966 52.5859 7.41992C53.3997 5.98763 54.4089 4.89714 55.6133 4.14844C56.1992 3.79036 56.834 3.46484 57.5176 3.17188C58.2012 2.84635 58.901 2.68359 59.6172 2.68359C60.6589 2.68359 61.1797 3.20443 61.1797 4.24609C61.1797 4.57161 61.1309 4.88086 61.0332 5.17383C60.9681 5.4668 60.8867 5.75977 60.7891 6.05273C60.3008 7.48503 59.7799 8.90104 59.2266 10.3008C58.6732 11.668 58.1686 13.084 57.7129 14.5488C56.9967 16.8926 56.3945 19.5618 55.9062 22.5566C55.4505 25.5189 55.0762 28.6764 54.7832 32.0293C54.5228 35.3822 54.3438 38.849 54.2461 42.4297C54.1484 46.0104 54.1159 49.5749 54.1484 53.123C54.181 56.6387 54.2624 60.0729 54.3926 63.4258C54.5553 66.7786 54.7507 69.9036 54.9785 72.8008C55.2064 75.6979 55.4505 78.2858 55.7109 80.5645C56.0039 82.8757 56.2969 84.7474 56.5898 86.1797L55.6133 86.5703C54.2786 83.3151 53.1556 79.7832 52.2441 75.9746C51.3652 72.166 50.6491 68.2272 50.0957 64.1582C48.0775 64.7116 45.75 65.1836 43.1133 65.5742C40.4766 65.9323 37.791 66.2253 35.0566 66.4531C32.3548 66.6484 29.7344 66.7949 27.1953 66.8926C24.6888 66.9577 22.5566 66.9902 20.7988 66.9902H17.4785C17.6738 71.222 17.9342 75.0143 18.2598 78.3672C18.5853 81.7201 18.9596 84.3568 19.3828 86.2773L18.4062 86.668C17.2344 83.7708 16.2253 80.6458 15.3789 77.293C14.5326 73.9401 13.8164 70.4733 13.2305 66.8926C12.2865 66.8275 11.375 66.7298 10.4961 66.5996C9.61719 66.4694 8.75456 66.2904 7.9082 66.0625C7.06185 65.8997 6.2806 65.5254 5.56445 64.9395C4.84831 64.3535 4.22982 63.6699 3.70898 62.8887C3.18815 62.1074 2.76497 61.2773 2.43945 60.3984C2.14648 59.487 2 58.6081 2 57.7617C2 57.306 2.09766 56.8503 2.29297 56.3945C2.48828 55.9062 2.89518 55.6621 3.51367 55.6621C3.9694 55.6621 4.39258 55.7598 4.7832 55.9551C5.75977 56.3457 6.85026 56.7201 8.05469 57.0781C9.29167 57.4036 10.6426 57.7292 12.1074 58.0547C11.6517 53.7904 11.3262 49.5911 11.1309 45.457C10.9681 41.3229 10.8867 37.4329 10.8867 33.7871C10.8867 32.5176 10.903 31.0202 10.9355 29.2949C11.0007 27.5697 11.0983 25.7467 11.2285 23.8262C11.3913 21.873 11.6354 19.9036 11.9609 17.918C12.2865 15.8997 12.7259 14.0117 13.2793 12.2539C13.8327 10.4961 14.5163 8.91732 15.3301 7.51758C16.1764 6.08529 17.2018 4.99479 18.4062 4.24609C18.9596 3.88802 19.5781 3.54622 20.2617 3.2207C20.9779 2.86263 21.694 2.68359 22.4102 2.68359C22.8984 2.68359 23.2891 2.83008 23.582 3.12305C23.875 3.41602 24.0215 3.83919 24.0215 4.39258Z" fill="#50A060"/>
<path d="M91.7949 55.5645C91.7949 57.8431 91.4206 59.959 90.6719 61.9121C89.9232 63.8652 88.8652 65.5579 87.498 66.9902C86.1309 68.4225 84.487 69.5456 82.5664 70.3594C80.6784 71.1732 78.5788 71.5801 76.2676 71.5801C74.2168 71.5801 72.3613 71.1895 70.7012 70.4082C69.0736 69.6595 67.6738 68.6341 66.502 67.332C65.3301 66.0299 64.4349 64.5163 63.8164 62.791C63.1979 61.0332 62.8887 59.1615 62.8887 57.1758C62.8887 55.5156 63.1165 53.9368 63.5723 52.4395C64.0605 50.9421 64.7279 49.5586 65.5742 48.2891C66.4206 46.987 67.4297 45.7988 68.6016 44.7246C69.7734 43.6178 71.043 42.625 72.4102 41.7461L72.9961 42.1855C71.6289 43.7806 70.5547 45.5384 69.7734 47.459C68.9922 49.3796 68.6016 51.4141 68.6016 53.5625C68.6016 55.125 68.8294 56.7201 69.2852 58.3477C69.7734 59.9427 70.4733 61.4076 71.3848 62.7422C72.2962 64.0768 73.4355 65.1673 74.8027 66.0137C76.1699 66.86 77.7324 67.2832 79.4902 67.2832C80.597 67.2832 81.6387 67.0553 82.6152 66.5996C83.5918 66.1439 84.4382 65.5254 85.1543 64.7441C85.903 63.9629 86.4889 63.084 86.9121 62.1074C87.3678 61.0983 87.5957 60.0566 87.5957 58.9824C87.5957 57.9408 87.4329 56.9316 87.1074 55.9551C86.8145 54.946 86.3913 54.0182 85.8379 53.1719C85.2845 52.293 84.6172 51.5117 83.8359 50.8281C83.0547 50.112 82.2083 49.526 81.2969 49.0703C80.776 48.8099 80.2715 48.6146 79.7832 48.4844C79.3275 48.3542 78.8229 48.2077 78.2695 48.0449C78.0417 48.0124 77.7975 47.9635 77.5371 47.8984C77.2767 47.8008 77.0326 47.7031 76.8047 47.6055C76.5768 47.4753 76.3815 47.3125 76.2188 47.1172C76.056 46.9219 75.9746 46.6777 75.9746 46.3848C75.9746 45.7988 76.1862 45.2617 76.6094 44.7734C77.0326 44.2852 77.5371 43.862 78.123 43.5039C78.709 43.1133 79.3275 42.8203 79.9785 42.625C80.6296 42.3971 81.1992 42.2832 81.6875 42.2832C83.3477 42.2832 84.8125 42.7064 86.082 43.5527C87.3516 44.3991 88.4095 45.4733 89.2559 46.7754C90.1022 48.0775 90.737 49.5098 91.1602 51.0723C91.5833 52.6348 91.7949 54.1322 91.7949 55.5645Z" fill="#50A060"/>
<path d="M138.182 62.9863C137.563 64.1582 136.896 65.2812 136.18 66.3555C135.496 67.4297 134.715 68.3737 133.836 69.1875C132.957 70.0013 131.964 70.6523 130.857 71.1406C129.751 71.6289 128.481 71.873 127.049 71.873C125.421 71.873 124.021 71.4661 122.85 70.6523C121.678 69.8711 120.669 68.8294 119.822 67.5273C119.008 66.1927 118.341 64.679 117.82 62.9863C117.332 61.2936 116.925 59.5684 116.6 57.8105C116.274 56.0527 116.03 54.3275 115.867 52.6348C115.704 50.9095 115.558 49.3633 115.428 47.9961C114.809 48.4844 114.061 49.4284 113.182 50.8281C112.303 52.1953 111.408 53.8066 110.496 55.6621C109.585 57.5176 108.706 59.5358 107.859 61.7168C107.046 63.8978 106.378 66.0462 105.857 68.1621C105.76 68.6178 105.597 69.0898 105.369 69.5781C105.174 70.0664 104.913 70.5059 104.588 70.8965C104.295 71.3197 103.937 71.6615 103.514 71.9219C103.09 72.2148 102.618 72.3613 102.098 72.3613C101.251 72.3613 100.633 72.0684 100.242 71.4824C99.8841 70.8965 99.6237 70.2292 99.4609 69.4805C98.5169 65.3464 97.8496 61.3913 97.459 57.6152C97.1009 53.8392 96.9219 50.0632 96.9219 46.2871C96.9219 45.3757 97.0684 44.5944 97.3613 43.9434C97.6868 43.2598 98.11 42.7064 98.6309 42.2832C99.1517 41.8275 99.7702 41.502 100.486 41.3066C101.202 41.0788 101.951 40.9648 102.732 40.9648C102.83 40.9648 102.977 40.9648 103.172 40.9648C103.4 40.9648 103.611 40.9974 103.807 41.0625C104.002 41.0951 104.165 41.1602 104.295 41.2578C104.425 41.3555 104.474 41.4857 104.441 41.6484C103.595 45.9128 103.188 50.2585 103.221 54.6855C103.253 59.0801 103.481 63.3118 103.904 67.3809C104.262 65.7533 104.783 63.9141 105.467 61.8633C106.183 59.7799 106.997 57.6966 107.908 55.6133C108.852 53.4974 109.861 51.4954 110.936 49.6074C112.042 47.6868 113.165 46.0755 114.305 44.7734C114.858 44.1549 115.411 43.6341 115.965 43.2109C116.551 42.7552 117.267 42.5273 118.113 42.5273C118.602 42.5273 119.008 42.625 119.334 42.8203C119.66 43.0156 119.92 43.2598 120.115 43.5527C120.343 43.8457 120.506 44.1875 120.604 44.5781C120.734 44.9362 120.831 45.2943 120.896 45.6523C121.059 46.5964 121.222 47.8171 121.385 49.3145C121.548 50.8118 121.743 52.4069 121.971 54.0996C122.231 55.7923 122.54 57.5013 122.898 59.2266C123.257 60.9193 123.712 62.4655 124.266 63.8652C124.819 65.2324 125.486 66.3555 126.268 67.2344C127.049 68.1133 127.977 68.5527 129.051 68.5527C129.93 68.5527 130.776 68.39 131.59 68.0645C132.436 67.7064 133.234 67.2669 133.982 66.7461C134.731 66.1927 135.431 65.5742 136.082 64.8906C136.733 64.1745 137.319 63.4746 137.84 62.791L138.182 62.9863Z" fill="#50A060"/>
<path d="M166.941 62.9863C166.095 64.2233 165.07 65.3789 163.865 66.4531C162.693 67.5273 161.391 68.4551 159.959 69.2363C158.559 70.0176 157.078 70.6361 155.516 71.0918C153.986 71.5475 152.439 71.7754 150.877 71.7754C148.663 71.7754 146.596 71.4824 144.676 70.8965C142.755 70.3431 141.079 69.4805 139.646 68.3086C138.214 67.1367 137.091 65.6719 136.277 63.9141C135.464 62.1237 135.057 60.0404 135.057 57.6641C135.057 55.3203 135.48 53.1393 136.326 51.1211C137.205 49.0703 138.393 47.2962 139.891 45.7988C141.421 44.2689 143.211 43.0645 145.262 42.1855C147.312 41.3066 149.51 40.8672 151.854 40.8672C152.96 40.8672 153.986 41.0299 154.93 41.3555C155.906 41.6484 156.753 42.1042 157.469 42.7227C158.185 43.3086 158.738 44.041 159.129 44.9199C159.552 45.7988 159.764 46.8079 159.764 47.9473C159.764 49.3145 159.487 50.5189 158.934 51.5605C158.38 52.6022 157.648 53.5137 156.736 54.2949C155.825 55.0762 154.783 55.7272 153.611 56.248C152.472 56.7689 151.268 57.1921 149.998 57.5176C148.761 57.8431 147.524 58.0872 146.287 58.25C145.083 58.3802 143.976 58.4453 142.967 58.4453H141.795C142.218 61.4076 143.39 63.6699 145.311 65.2324C147.231 66.7949 149.884 67.5762 153.27 67.5762C155.678 67.5762 158.022 67.153 160.301 66.3066C162.612 65.4603 164.695 64.2884 166.551 62.791L166.941 62.9863ZM141.648 56.9805H142.869C144.041 56.9805 145.245 56.8014 146.482 56.4434C147.719 56.0527 148.826 55.4993 149.803 54.7832C150.812 54.0345 151.642 53.123 152.293 52.0488C152.944 50.9746 153.27 49.7539 153.27 48.3867C153.27 47.0521 152.977 45.9453 152.391 45.0664C151.837 44.1875 150.861 43.748 149.461 43.748C148.029 43.748 146.808 44.1875 145.799 45.0664C144.822 45.9128 144.025 46.9707 143.406 48.2402C142.788 49.4772 142.332 50.7956 142.039 52.1953C141.779 53.5625 141.648 54.7832 141.648 55.8574V56.9805Z" fill="#50A060"/>
<path d="M191.844 59.4707C191.844 61.1634 191.535 62.7585 190.916 64.2559C190.298 65.7533 189.435 67.0553 188.328 68.1621C187.221 69.2689 185.919 70.1478 184.422 70.7988C182.957 71.4499 181.362 71.7754 179.637 71.7754C178.497 71.7754 177.374 71.5964 176.268 71.2383C175.161 70.8802 174.135 70.3757 173.191 69.7246C172.28 69.041 171.482 68.2272 170.799 67.2832C170.115 66.3392 169.627 65.2975 169.334 64.1582L170.457 63.8652C171.303 64.9069 172.28 65.7695 173.387 66.4531C174.526 67.1367 175.812 67.4785 177.244 67.4785C178.449 67.4785 179.555 67.2181 180.564 66.6973C181.606 66.1764 182.485 65.4928 183.201 64.6465C183.95 63.8001 184.52 62.8236 184.91 61.7168C185.333 60.5775 185.545 59.4219 185.545 58.25C185.545 56.8503 185.35 55.6947 184.959 54.7832C184.568 53.8392 184.048 53.0579 183.396 52.4395C182.778 51.7884 182.078 51.235 181.297 50.7793C180.516 50.291 179.718 49.8027 178.904 49.3145C178.123 48.8262 177.358 48.2728 176.609 47.6543C175.893 47.0358 175.275 46.2383 174.754 45.2617C174.721 47.1823 174.396 49.2005 173.777 51.3164C173.159 53.4323 172.312 55.4831 171.238 57.4688C170.197 59.4544 168.992 61.3099 167.625 63.0352C166.258 64.7604 164.809 66.209 163.279 67.3809L162.889 66.6973C163.93 65.5905 164.842 64.207 165.623 62.5469C166.404 60.8867 167.039 59.1452 167.527 57.3223C168.048 55.4668 168.423 53.6113 168.65 51.7559C168.911 49.9004 169.041 48.2077 169.041 46.6777C169.041 45.8639 168.96 45.0664 168.797 44.2852C168.634 43.5039 168.553 42.7389 168.553 41.9902C168.553 41.0788 168.813 40.3789 169.334 39.8906C169.887 39.4023 170.587 39.1582 171.434 39.1582C172.085 39.1582 172.605 39.3047 172.996 39.5977C173.387 39.8906 173.745 40.2812 174.07 40.7695C174.396 41.2253 174.721 41.7624 175.047 42.3809C175.372 42.9668 175.779 43.5853 176.268 44.2363C176.788 44.8548 177.423 45.4733 178.172 46.0918C178.953 46.6777 179.946 47.1986 181.15 47.6543C182.55 48.1751 183.885 48.7773 185.154 49.4609C186.456 50.112 187.596 50.8932 188.572 51.8047C189.581 52.7161 190.379 53.8066 190.965 55.0762C191.551 56.3132 191.844 57.778 191.844 59.4707Z" fill="#50A060"/>
<path d="M227.586 62.9863C226.87 64.1908 226.023 65.3138 225.047 66.3555C224.103 67.3971 223.045 68.3086 221.873 69.0898C220.734 69.8711 219.497 70.4733 218.162 70.8965C216.827 71.3522 215.444 71.5801 214.012 71.5801C211.896 71.5801 210.024 71.222 208.396 70.5059C206.801 69.7897 205.418 68.8294 204.246 67.625C203.074 66.388 202.098 64.9557 201.316 63.3281C200.535 61.7005 199.917 60.0078 199.461 58.25C199.005 56.4596 198.68 54.6367 198.484 52.7812C198.289 50.9258 198.191 49.1517 198.191 47.459C198.191 45.8965 198.257 44.3014 198.387 42.6738C198.517 41.0137 198.712 39.321 198.973 37.5957C197.964 37.6283 196.971 37.6445 195.994 37.6445C195.05 37.6445 194.106 37.6445 193.162 37.6445C192.544 37.6445 191.844 37.6283 191.062 37.5957C190.281 37.5632 189.549 37.4329 188.865 37.2051C188.182 36.9772 187.612 36.6354 187.156 36.1797C186.701 35.724 186.473 35.0566 186.473 34.1777C186.473 33.6895 186.57 33.2988 186.766 33.0059C186.928 32.7129 187.173 32.5013 187.498 32.3711C187.791 32.2083 188.149 32.1107 188.572 32.0781C188.963 32.013 189.37 31.9805 189.793 31.9805C190.281 31.9805 191.437 32.0618 193.26 32.2246C195.083 32.3874 197.28 32.5664 199.852 32.7617C200.665 28.9206 201.707 25.1445 202.977 21.4336C204.279 17.7227 205.743 14.3372 207.371 11.2773H208.055C207.013 14.8255 206.085 18.4062 205.271 22.0195C204.49 25.6328 203.904 29.2949 203.514 33.0059C205.89 33.1686 208.331 33.3151 210.838 33.4453C213.377 33.543 215.851 33.5918 218.26 33.5918C221.808 33.5918 224.689 33.5592 226.902 33.4941C229.116 33.429 230.857 33.3477 232.127 33.25C233.624 33.1198 234.747 32.9896 235.496 32.8594L235.691 33.6895C233.738 34.1452 231.508 34.5846 229.002 35.0078C226.495 35.3984 223.826 35.7565 220.994 36.082C218.162 36.375 215.232 36.6354 212.205 36.8633C209.178 37.0911 206.167 37.2702 203.172 37.4004C203.107 38.0514 203.074 38.7188 203.074 39.4023C203.074 40.0534 203.074 40.7044 203.074 41.3555C203.074 42.918 203.139 44.6432 203.27 46.5312C203.432 48.4193 203.709 50.3236 204.1 52.2441C204.49 54.1322 205.011 55.9876 205.662 57.8105C206.346 59.6009 207.225 61.196 208.299 62.5957C209.406 63.9629 210.724 65.0697 212.254 65.916C213.784 66.7624 215.59 67.1855 217.674 67.1855C219.594 67.1855 221.32 66.7624 222.85 65.916C224.412 65.0697 225.893 64.028 227.293 62.791L227.586 62.9863Z" fill="#50A060"/>
<path d="M251.365 64.5977C250.324 66.7461 248.859 68.4551 246.971 69.7246C245.083 70.9616 242.934 71.5801 240.525 71.5801C238.54 71.5801 236.766 70.9779 235.203 69.7734C233.641 68.569 232.257 66.9902 231.053 65.0371C229.881 63.084 228.872 60.8867 228.025 58.4453C227.212 55.9714 226.528 53.4648 225.975 50.9258C225.454 48.3867 225.063 45.9453 224.803 43.6016C224.575 41.2253 224.461 39.1582 224.461 37.4004C224.461 35.252 224.575 32.8919 224.803 30.3203C225.031 27.7487 225.405 25.1608 225.926 22.5566C226.447 19.9199 227.114 17.3646 227.928 14.8906C228.774 12.4167 229.783 10.2357 230.955 8.34766C232.16 6.42708 233.543 4.89714 235.105 3.75781C236.668 2.58594 238.458 2 240.477 2C242.202 2 243.602 2.50456 244.676 3.51367C245.75 4.52279 246.596 5.77604 247.215 7.27344C247.833 8.73828 248.24 10.3008 248.436 11.9609C248.663 13.6211 248.777 15.1022 248.777 16.4043C248.777 19.9199 248.354 23.3867 247.508 26.8047C246.694 30.1901 245.555 33.3965 244.09 36.4238C242.658 39.4186 240.965 42.153 239.012 44.627C237.059 47.0684 234.959 49.1191 232.713 50.7793C233.169 52.9603 233.706 55.0924 234.324 57.1758C234.975 59.2266 235.757 61.0658 236.668 62.6934C237.579 64.2884 238.621 65.5905 239.793 66.5996C240.997 67.5762 242.365 68.0645 243.895 68.0645C245.424 68.0645 246.743 67.7552 247.85 67.1367C248.956 66.5182 249.982 65.6068 250.926 64.4023L251.365 64.5977ZM231.248 34.4707C231.215 35.1868 231.199 36.0658 231.199 37.1074C231.232 38.1491 231.281 39.3047 231.346 40.5742C231.443 41.8112 231.574 43.1458 231.736 44.5781C231.899 46.0104 232.111 47.4753 232.371 48.9727C234.552 47.0195 236.408 44.8548 237.938 42.4785C239.467 40.1022 240.721 37.5469 241.697 34.8125C242.674 32.0456 243.374 29.1484 243.797 26.1211C244.253 23.0612 244.48 19.8874 244.48 16.5996C244.48 16.1764 244.464 15.623 244.432 14.9395C244.432 14.2559 244.383 13.5234 244.285 12.7422C244.188 11.9609 244.041 11.1797 243.846 10.3984C243.683 9.61719 243.439 8.91732 243.113 8.29883C242.82 7.64779 242.43 7.12695 241.941 6.73633C241.486 6.31315 240.932 6.10156 240.281 6.10156C239.044 6.10156 237.954 6.72005 237.01 7.95703C236.098 9.16146 235.301 10.7077 234.617 12.5957C233.966 14.4837 233.413 16.5671 232.957 18.8457C232.534 21.1243 232.192 23.3216 231.932 25.4375C231.671 27.5208 231.492 29.3926 231.395 31.0527C231.297 32.7129 231.248 33.8522 231.248 34.4707Z" fill="#50A060"/>
<path d="M281.443 84.7637C281.443 86.6191 281.264 88.4746 280.906 90.3301C280.548 92.1855 280.011 93.9759 279.295 95.7012C278.611 97.459 277.749 99.0866 276.707 100.584C275.665 102.114 274.477 103.432 273.143 104.539C271.808 105.646 270.311 106.525 268.65 107.176C267.023 107.827 265.249 108.152 263.328 108.152C261.538 108.152 259.845 107.794 258.25 107.078C256.655 106.362 255.255 105.402 254.051 104.197C252.879 102.993 251.951 101.577 251.268 99.9492C250.584 98.3542 250.242 96.6615 250.242 94.8711C250.242 92.918 250.633 91.0462 251.414 89.2559C252.228 87.4655 253.286 85.8216 254.588 84.3242C255.89 82.8268 257.355 81.5085 258.982 80.3691C260.643 79.2298 262.335 78.3346 264.061 77.6836L264.354 78.2695C261.196 79.9948 258.755 82.3223 257.029 85.252C255.304 88.1816 254.441 91.4531 254.441 95.0664C254.441 96.5312 254.637 97.931 255.027 99.2656C255.451 100.633 256.069 101.837 256.883 102.879C257.697 103.921 258.706 104.751 259.91 105.369C261.147 106.02 262.563 106.346 264.158 106.346C266.372 106.346 268.211 105.743 269.676 104.539C271.141 103.335 272.312 101.821 273.191 99.998C274.07 98.2077 274.689 96.2546 275.047 94.1387C275.438 92.0228 275.633 90.0371 275.633 88.1816C275.633 86.196 275.47 84.2428 275.145 82.3223C274.852 80.4017 274.477 78.4811 274.021 76.5605C273.598 74.64 273.159 72.7194 272.703 70.7988C272.247 68.8783 271.873 66.9414 271.58 64.9883C270.896 65.8021 270.164 66.5833 269.383 67.332C268.602 68.0482 267.755 68.6829 266.844 69.2363C265.965 69.7572 265.021 70.1641 264.012 70.457C263.003 70.7826 261.945 70.9453 260.838 70.9453C259.178 70.9453 257.713 70.6361 256.443 70.0176C255.206 69.4316 254.165 68.6178 253.318 67.5762C252.472 66.5345 251.821 65.3301 251.365 63.9629C250.942 62.5957 250.73 61.1309 250.73 59.5684C250.73 57.8105 250.975 56.0853 251.463 54.3926C251.951 52.6999 252.635 51.1048 253.514 49.6074C254.393 48.11 255.434 46.7103 256.639 45.4082C257.843 44.1061 259.145 42.9668 260.545 41.9902L261.131 42.2832C259.731 44.3014 258.624 46.4824 257.811 48.8262C257.029 51.1374 256.639 53.5137 256.639 55.9551C256.639 56.9967 256.753 58.1198 256.98 59.3242C257.208 60.5286 257.566 61.6354 258.055 62.6445C258.576 63.6536 259.259 64.5 260.105 65.1836C260.984 65.8346 262.059 66.1602 263.328 66.1602C264.858 66.1602 266.29 65.8346 267.625 65.1836C268.96 64.5 270.18 63.6374 271.287 62.5957C271.189 61.3913 271.141 60.1868 271.141 58.9824C271.141 57.3223 271.255 55.597 271.482 53.8066C271.71 52.0163 272.117 50.3073 272.703 48.6797C273.322 47.0195 274.152 45.5221 275.193 44.1875C276.235 42.8203 277.586 41.7135 279.246 40.8672L279.637 41.0625C278.855 41.8763 278.204 42.7878 277.684 43.7969C277.163 44.7734 276.74 45.7988 276.414 46.873C276.121 47.9473 275.91 49.054 275.779 50.1934C275.682 51.3001 275.633 52.3906 275.633 53.4648C275.633 56.4596 275.926 59.2428 276.512 61.8145C277.13 64.3861 277.798 66.9089 278.514 69.3828C279.262 71.8568 279.93 74.3307 280.516 76.8047C281.134 79.3112 281.443 81.9642 281.443 84.7637Z" fill="#50A060"/>
<path d="M24.0215 4.39258C24.0215 4.68555 23.9727 4.96224 23.875 5.22266C23.7773 5.48307 23.6797 5.75977 23.582 6.05273C23.0938 7.51758 22.5566 8.94987 21.9707 10.3496C21.4173 11.7493 20.929 13.1816 20.5059 14.6465C19.7572 17.2181 19.1549 20.2454 18.6992 23.7285C18.2435 27.179 17.8854 30.8737 17.625 34.8125C17.3646 38.7188 17.2018 42.7552 17.1367 46.9219C17.0716 51.056 17.0879 55.1087 17.1855 59.0801C19.8223 59.5684 22.5729 60.0078 25.4375 60.3984C28.3346 60.7565 31.1504 61.0658 33.8848 61.3262C36.6191 61.5866 39.1908 61.7982 41.5996 61.9609C44.041 62.0911 46.1406 62.1562 47.8984 62.1562H49.8027C49.1842 57.2083 48.7611 52.293 48.5332 47.4102C48.3053 42.5273 48.1914 37.9538 48.1914 33.6895C48.1914 32.4525 48.2077 30.9714 48.2402 29.2461C48.2728 27.5208 48.3704 25.6979 48.5332 23.7773C48.696 21.8242 48.9238 19.8548 49.2168 17.8691C49.5423 15.8509 49.9818 13.9629 50.5352 12.2051C51.0885 10.4147 51.7721 8.81966 52.5859 7.41992C53.3997 5.98763 54.4089 4.89714 55.6133 4.14844C56.1992 3.79036 56.834 3.46484 57.5176 3.17188C58.2012 2.84635 58.901 2.68359 59.6172 2.68359C60.6589 2.68359 61.1797 3.20443 61.1797 4.24609C61.1797 4.57161 61.1309 4.88086 61.0332 5.17383C60.9681 5.4668 60.8867 5.75977 60.7891 6.05273C60.3008 7.48503 59.7799 8.90104 59.2266 10.3008C58.6732 11.668 58.1686 13.084 57.7129 14.5488C56.9967 16.8926 56.3945 19.5618 55.9062 22.5566C55.4505 25.5189 55.0762 28.6764 54.7832 32.0293C54.5228 35.3822 54.3438 38.849 54.2461 42.4297C54.1484 46.0104 54.1159 49.5749 54.1484 53.123C54.181 56.6387 54.2624 60.0729 54.3926 63.4258C54.5553 66.7786 54.7507 69.9036 54.9785 72.8008C55.2064 75.6979 55.4505 78.2858 55.7109 80.5645C56.0039 82.8757 56.2969 84.7474 56.5898 86.1797L55.6133 86.5703C54.2786 83.3151 53.1556 79.7832 52.2441 75.9746C51.3652 72.166 50.6491 68.2272 50.0957 64.1582C48.0775 64.7116 45.75 65.1836 43.1133 65.5742C40.4766 65.9323 37.791 66.2253 35.0566 66.4531C32.3548 66.6484 29.7344 66.7949 27.1953 66.8926C24.6888 66.9577 22.5566 66.9902 20.7988 66.9902H17.4785C17.6738 71.222 17.9342 75.0143 18.2598 78.3672C18.5853 81.7201 18.9596 84.3568 19.3828 86.2773L18.4062 86.668C17.2344 83.7708 16.2253 80.6458 15.3789 77.293C14.5326 73.9401 13.8164 70.4733 13.2305 66.8926C12.2865 66.8275 11.375 66.7298 10.4961 66.5996C9.61719 66.4694 8.75456 66.2904 7.9082 66.0625C7.06185 65.8997 6.2806 65.5254 5.56445 64.9395C4.84831 64.3535 4.22982 63.6699 3.70898 62.8887C3.18815 62.1074 2.76497 61.2773 2.43945 60.3984C2.14648 59.487 2 58.6081 2 57.7617C2 57.306 2.09766 56.8503 2.29297 56.3945C2.48828 55.9062 2.89518 55.6621 3.51367 55.6621C3.9694 55.6621 4.39258 55.7598 4.7832 55.9551C5.75977 56.3457 6.85026 56.7201 8.05469 57.0781C9.29167 57.4036 10.6426 57.7292 12.1074 58.0547C11.6517 53.7904 11.3262 49.5911 11.1309 45.457C10.9681 41.3229 10.8867 37.4329 10.8867 33.7871C10.8867 32.5176 10.903 31.0202 10.9355 29.2949C11.0007 27.5697 11.0983 25.7467 11.2285 23.8262C11.3913 21.873 11.6354 19.9036 11.9609 17.918C12.2865 15.8997 12.7259 14.0117 13.2793 12.2539C13.8327 10.4961 14.5163 8.91732 15.3301 7.51758C16.1764 6.08529 17.2018 4.99479 18.4062 4.24609C18.9596 3.88802 19.5781 3.54622 20.2617 3.2207C20.9779 2.86263 21.694 2.68359 22.4102 2.68359C22.8984 2.68359 23.2891 2.83008 23.582 3.12305C23.875 3.41602 24.0215 3.83919 24.0215 4.39258Z" stroke="#50A060" stroke-width="3" mask="url(#path-1-outside-1_153_1341)"/>
<path d="M91.7949 55.5645C91.7949 57.8431 91.4206 59.959 90.6719 61.9121C89.9232 63.8652 88.8652 65.5579 87.498 66.9902C86.1309 68.4225 84.487 69.5456 82.5664 70.3594C80.6784 71.1732 78.5788 71.5801 76.2676 71.5801C74.2168 71.5801 72.3613 71.1895 70.7012 70.4082C69.0736 69.6595 67.6738 68.6341 66.502 67.332C65.3301 66.0299 64.4349 64.5163 63.8164 62.791C63.1979 61.0332 62.8887 59.1615 62.8887 57.1758C62.8887 55.5156 63.1165 53.9368 63.5723 52.4395C64.0605 50.9421 64.7279 49.5586 65.5742 48.2891C66.4206 46.987 67.4297 45.7988 68.6016 44.7246C69.7734 43.6178 71.043 42.625 72.4102 41.7461L72.9961 42.1855C71.6289 43.7806 70.5547 45.5384 69.7734 47.459C68.9922 49.3796 68.6016 51.4141 68.6016 53.5625C68.6016 55.125 68.8294 56.7201 69.2852 58.3477C69.7734 59.9427 70.4733 61.4076 71.3848 62.7422C72.2962 64.0768 73.4355 65.1673 74.8027 66.0137C76.1699 66.86 77.7324 67.2832 79.4902 67.2832C80.597 67.2832 81.6387 67.0553 82.6152 66.5996C83.5918 66.1439 84.4382 65.5254 85.1543 64.7441C85.903 63.9629 86.4889 63.084 86.9121 62.1074C87.3678 61.0983 87.5957 60.0566 87.5957 58.9824C87.5957 57.9408 87.4329 56.9316 87.1074 55.9551C86.8145 54.946 86.3913 54.0182 85.8379 53.1719C85.2845 52.293 84.6172 51.5117 83.8359 50.8281C83.0547 50.112 82.2083 49.526 81.2969 49.0703C80.776 48.8099 80.2715 48.6146 79.7832 48.4844C79.3275 48.3542 78.8229 48.2077 78.2695 48.0449C78.0417 48.0124 77.7975 47.9635 77.5371 47.8984C77.2767 47.8008 77.0326 47.7031 76.8047 47.6055C76.5768 47.4753 76.3815 47.3125 76.2188 47.1172C76.056 46.9219 75.9746 46.6777 75.9746 46.3848C75.9746 45.7988 76.1862 45.2617 76.6094 44.7734C77.0326 44.2852 77.5371 43.862 78.123 43.5039C78.709 43.1133 79.3275 42.8203 79.9785 42.625C80.6296 42.3971 81.1992 42.2832 81.6875 42.2832C83.3477 42.2832 84.8125 42.7064 86.082 43.5527C87.3516 44.3991 88.4095 45.4733 89.2559 46.7754C90.1022 48.0775 90.737 49.5098 91.1602 51.0723C91.5833 52.6348 91.7949 54.1322 91.7949 55.5645Z" stroke="#50A060" stroke-width="3" mask="url(#path-1-outside-1_153_1341)"/>
<path d="M138.182 62.9863C137.563 64.1582 136.896 65.2812 136.18 66.3555C135.496 67.4297 134.715 68.3737 133.836 69.1875C132.957 70.0013 131.964 70.6523 130.857 71.1406C129.751 71.6289 128.481 71.873 127.049 71.873C125.421 71.873 124.021 71.4661 122.85 70.6523C121.678 69.8711 120.669 68.8294 119.822 67.5273C119.008 66.1927 118.341 64.679 117.82 62.9863C117.332 61.2936 116.925 59.5684 116.6 57.8105C116.274 56.0527 116.03 54.3275 115.867 52.6348C115.704 50.9095 115.558 49.3633 115.428 47.9961C114.809 48.4844 114.061 49.4284 113.182 50.8281C112.303 52.1953 111.408 53.8066 110.496 55.6621C109.585 57.5176 108.706 59.5358 107.859 61.7168C107.046 63.8978 106.378 66.0462 105.857 68.1621C105.76 68.6178 105.597 69.0898 105.369 69.5781C105.174 70.0664 104.913 70.5059 104.588 70.8965C104.295 71.3197 103.937 71.6615 103.514 71.9219C103.09 72.2148 102.618 72.3613 102.098 72.3613C101.251 72.3613 100.633 72.0684 100.242 71.4824C99.8841 70.8965 99.6237 70.2292 99.4609 69.4805C98.5169 65.3464 97.8496 61.3913 97.459 57.6152C97.1009 53.8392 96.9219 50.0632 96.9219 46.2871C96.9219 45.3757 97.0684 44.5944 97.3613 43.9434C97.6868 43.2598 98.11 42.7064 98.6309 42.2832C99.1517 41.8275 99.7702 41.502 100.486 41.3066C101.202 41.0788 101.951 40.9648 102.732 40.9648C102.83 40.9648 102.977 40.9648 103.172 40.9648C103.4 40.9648 103.611 40.9974 103.807 41.0625C104.002 41.0951 104.165 41.1602 104.295 41.2578C104.425 41.3555 104.474 41.4857 104.441 41.6484C103.595 45.9128 103.188 50.2585 103.221 54.6855C103.253 59.0801 103.481 63.3118 103.904 67.3809C104.262 65.7533 104.783 63.9141 105.467 61.8633C106.183 59.7799 106.997 57.6966 107.908 55.6133C108.852 53.4974 109.861 51.4954 110.936 49.6074C112.042 47.6868 113.165 46.0755 114.305 44.7734C114.858 44.1549 115.411 43.6341 115.965 43.2109C116.551 42.7552 117.267 42.5273 118.113 42.5273C118.602 42.5273 119.008 42.625 119.334 42.8203C119.66 43.0156 119.92 43.2598 120.115 43.5527C120.343 43.8457 120.506 44.1875 120.604 44.5781C120.734 44.9362 120.831 45.2943 120.896 45.6523C121.059 46.5964 121.222 47.8171 121.385 49.3145C121.548 50.8118 121.743 52.4069 121.971 54.0996C122.231 55.7923 122.54 57.5013 122.898 59.2266C123.257 60.9193 123.712 62.4655 124.266 63.8652C124.819 65.2324 125.486 66.3555 126.268 67.2344C127.049 68.1133 127.977 68.5527 129.051 68.5527C129.93 68.5527 130.776 68.39 131.59 68.0645C132.436 67.7064 133.234 67.2669 133.982 66.7461C134.731 66.1927 135.431 65.5742 136.082 64.8906C136.733 64.1745 137.319 63.4746 137.84 62.791L138.182 62.9863Z" stroke="#50A060" stroke-width="3" mask="url(#path-1-outside-1_153_1341)"/>
<path d="M166.941 62.9863C166.095 64.2233 165.07 65.3789 163.865 66.4531C162.693 67.5273 161.391 68.4551 159.959 69.2363C158.559 70.0176 157.078 70.6361 155.516 71.0918C153.986 71.5475 152.439 71.7754 150.877 71.7754C148.663 71.7754 146.596 71.4824 144.676 70.8965C142.755 70.3431 141.079 69.4805 139.646 68.3086C138.214 67.1367 137.091 65.6719 136.277 63.9141C135.464 62.1237 135.057 60.0404 135.057 57.6641C135.057 55.3203 135.48 53.1393 136.326 51.1211C137.205 49.0703 138.393 47.2962 139.891 45.7988C141.421 44.2689 143.211 43.0645 145.262 42.1855C147.312 41.3066 149.51 40.8672 151.854 40.8672C152.96 40.8672 153.986 41.0299 154.93 41.3555C155.906 41.6484 156.753 42.1042 157.469 42.7227C158.185 43.3086 158.738 44.041 159.129 44.9199C159.552 45.7988 159.764 46.8079 159.764 47.9473C159.764 49.3145 159.487 50.5189 158.934 51.5605C158.38 52.6022 157.648 53.5137 156.736 54.2949C155.825 55.0762 154.783 55.7272 153.611 56.248C152.472 56.7689 151.268 57.1921 149.998 57.5176C148.761 57.8431 147.524 58.0872 146.287 58.25C145.083 58.3802 143.976 58.4453 142.967 58.4453H141.795C142.218 61.4076 143.39 63.6699 145.311 65.2324C147.231 66.7949 149.884 67.5762 153.27 67.5762C155.678 67.5762 158.022 67.153 160.301 66.3066C162.612 65.4603 164.695 64.2884 166.551 62.791L166.941 62.9863ZM141.648 56.9805H142.869C144.041 56.9805 145.245 56.8014 146.482 56.4434C147.719 56.0527 148.826 55.4993 149.803 54.7832C150.812 54.0345 151.642 53.123 152.293 52.0488C152.944 50.9746 153.27 49.7539 153.27 48.3867C153.27 47.0521 152.977 45.9453 152.391 45.0664C151.837 44.1875 150.861 43.748 149.461 43.748C148.029 43.748 146.808 44.1875 145.799 45.0664C144.822 45.9128 144.025 46.9707 143.406 48.2402C142.788 49.4772 142.332 50.7956 142.039 52.1953C141.779 53.5625 141.648 54.7832 141.648 55.8574V56.9805Z" stroke="#50A060" stroke-width="3" mask="url(#path-1-outside-1_153_1341)"/>
<path d="M191.844 59.4707C191.844 61.1634 191.535 62.7585 190.916 64.2559C190.298 65.7533 189.435 67.0553 188.328 68.1621C187.221 69.2689 185.919 70.1478 184.422 70.7988C182.957 71.4499 181.362 71.7754 179.637 71.7754C178.497 71.7754 177.374 71.5964 176.268 71.2383C175.161 70.8802 174.135 70.3757 173.191 69.7246C172.28 69.041 171.482 68.2272 170.799 67.2832C170.115 66.3392 169.627 65.2975 169.334 64.1582L170.457 63.8652C171.303 64.9069 172.28 65.7695 173.387 66.4531C174.526 67.1367 175.812 67.4785 177.244 67.4785C178.449 67.4785 179.555 67.2181 180.564 66.6973C181.606 66.1764 182.485 65.4928 183.201 64.6465C183.95 63.8001 184.52 62.8236 184.91 61.7168C185.333 60.5775 185.545 59.4219 185.545 58.25C185.545 56.8503 185.35 55.6947 184.959 54.7832C184.568 53.8392 184.048 53.0579 183.396 52.4395C182.778 51.7884 182.078 51.235 181.297 50.7793C180.516 50.291 179.718 49.8027 178.904 49.3145C178.123 48.8262 177.358 48.2728 176.609 47.6543C175.893 47.0358 175.275 46.2383 174.754 45.2617C174.721 47.1823 174.396 49.2005 173.777 51.3164C173.159 53.4323 172.312 55.4831 171.238 57.4688C170.197 59.4544 168.992 61.3099 167.625 63.0352C166.258 64.7604 164.809 66.209 163.279 67.3809L162.889 66.6973C163.93 65.5905 164.842 64.207 165.623 62.5469C166.404 60.8867 167.039 59.1452 167.527 57.3223C168.048 55.4668 168.423 53.6113 168.65 51.7559C168.911 49.9004 169.041 48.2077 169.041 46.6777C169.041 45.8639 168.96 45.0664 168.797 44.2852C168.634 43.5039 168.553 42.7389 168.553 41.9902C168.553 41.0788 168.813 40.3789 169.334 39.8906C169.887 39.4023 170.587 39.1582 171.434 39.1582C172.085 39.1582 172.605 39.3047 172.996 39.5977C173.387 39.8906 173.745 40.2812 174.07 40.7695C174.396 41.2253 174.721 41.7624 175.047 42.3809C175.372 42.9668 175.779 43.5853 176.268 44.2363C176.788 44.8548 177.423 45.4733 178.172 46.0918C178.953 46.6777 179.946 47.1986 181.15 47.6543C182.55 48.1751 183.885 48.7773 185.154 49.4609C186.456 50.112 187.596 50.8932 188.572 51.8047C189.581 52.7161 190.379 53.8066 190.965 55.0762C191.551 56.3132 191.844 57.778 191.844 59.4707Z" stroke="#50A060" stroke-width="3" mask="url(#path-1-outside-1_153_1341)"/>
<path d="M227.586 62.9863C226.87 64.1908 226.023 65.3138 225.047 66.3555C224.103 67.3971 223.045 68.3086 221.873 69.0898C220.734 69.8711 219.497 70.4733 218.162 70.8965C216.827 71.3522 215.444 71.5801 214.012 71.5801C211.896 71.5801 210.024 71.222 208.396 70.5059C206.801 69.7897 205.418 68.8294 204.246 67.625C203.074 66.388 202.098 64.9557 201.316 63.3281C200.535 61.7005 199.917 60.0078 199.461 58.25C199.005 56.4596 198.68 54.6367 198.484 52.7812C198.289 50.9258 198.191 49.1517 198.191 47.459C198.191 45.8965 198.257 44.3014 198.387 42.6738C198.517 41.0137 198.712 39.321 198.973 37.5957C197.964 37.6283 196.971 37.6445 195.994 37.6445C195.05 37.6445 194.106 37.6445 193.162 37.6445C192.544 37.6445 191.844 37.6283 191.062 37.5957C190.281 37.5632 189.549 37.4329 188.865 37.2051C188.182 36.9772 187.612 36.6354 187.156 36.1797C186.701 35.724 186.473 35.0566 186.473 34.1777C186.473 33.6895 186.57 33.2988 186.766 33.0059C186.928 32.7129 187.173 32.5013 187.498 32.3711C187.791 32.2083 188.149 32.1107 188.572 32.0781C188.963 32.013 189.37 31.9805 189.793 31.9805C190.281 31.9805 191.437 32.0618 193.26 32.2246C195.083 32.3874 197.28 32.5664 199.852 32.7617C200.665 28.9206 201.707 25.1445 202.977 21.4336C204.279 17.7227 205.743 14.3372 207.371 11.2773H208.055C207.013 14.8255 206.085 18.4062 205.271 22.0195C204.49 25.6328 203.904 29.2949 203.514 33.0059C205.89 33.1686 208.331 33.3151 210.838 33.4453C213.377 33.543 215.851 33.5918 218.26 33.5918C221.808 33.5918 224.689 33.5592 226.902 33.4941C229.116 33.429 230.857 33.3477 232.127 33.25C233.624 33.1198 234.747 32.9896 235.496 32.8594L235.691 33.6895C233.738 34.1452 231.508 34.5846 229.002 35.0078C226.495 35.3984 223.826 35.7565 220.994 36.082C218.162 36.375 215.232 36.6354 212.205 36.8633C209.178 37.0911 206.167 37.2702 203.172 37.4004C203.107 38.0514 203.074 38.7188 203.074 39.4023C203.074 40.0534 203.074 40.7044 203.074 41.3555C203.074 42.918 203.139 44.6432 203.27 46.5312C203.432 48.4193 203.709 50.3236 204.1 52.2441C204.49 54.1322 205.011 55.9876 205.662 57.8105C206.346 59.6009 207.225 61.196 208.299 62.5957C209.406 63.9629 210.724 65.0697 212.254 65.916C213.784 66.7624 215.59 67.1855 217.674 67.1855C219.594 67.1855 221.32 66.7624 222.85 65.916C224.412 65.0697 225.893 64.028 227.293 62.791L227.586 62.9863Z" stroke="#50A060" stroke-width="3" mask="url(#path-1-outside-1_153_1341)"/>
<path d="M251.365 64.5977C250.324 66.7461 248.859 68.4551 246.971 69.7246C245.083 70.9616 242.934 71.5801 240.525 71.5801C238.54 71.5801 236.766 70.9779 235.203 69.7734C233.641 68.569 232.257 66.9902 231.053 65.0371C229.881 63.084 228.872 60.8867 228.025 58.4453C227.212 55.9714 226.528 53.4648 225.975 50.9258C225.454 48.3867 225.063 45.9453 224.803 43.6016C224.575 41.2253 224.461 39.1582 224.461 37.4004C224.461 35.252 224.575 32.8919 224.803 30.3203C225.031 27.7487 225.405 25.1608 225.926 22.5566C226.447 19.9199 227.114 17.3646 227.928 14.8906C228.774 12.4167 229.783 10.2357 230.955 8.34766C232.16 6.42708 233.543 4.89714 235.105 3.75781C236.668 2.58594 238.458 2 240.477 2C242.202 2 243.602 2.50456 244.676 3.51367C245.75 4.52279 246.596 5.77604 247.215 7.27344C247.833 8.73828 248.24 10.3008 248.436 11.9609C248.663 13.6211 248.777 15.1022 248.777 16.4043C248.777 19.9199 248.354 23.3867 247.508 26.8047C246.694 30.1901 245.555 33.3965 244.09 36.4238C242.658 39.4186 240.965 42.153 239.012 44.627C237.059 47.0684 234.959 49.1191 232.713 50.7793C233.169 52.9603 233.706 55.0924 234.324 57.1758C234.975 59.2266 235.757 61.0658 236.668 62.6934C237.579 64.2884 238.621 65.5905 239.793 66.5996C240.997 67.5762 242.365 68.0645 243.895 68.0645C245.424 68.0645 246.743 67.7552 247.85 67.1367C248.956 66.5182 249.982 65.6068 250.926 64.4023L251.365 64.5977ZM231.248 34.4707C231.215 35.1868 231.199 36.0658 231.199 37.1074C231.232 38.1491 231.281 39.3047 231.346 40.5742C231.443 41.8112 231.574 43.1458 231.736 44.5781C231.899 46.0104 232.111 47.4753 232.371 48.9727C234.552 47.0195 236.408 44.8548 237.938 42.4785C239.467 40.1022 240.721 37.5469 241.697 34.8125C242.674 32.0456 243.374 29.1484 243.797 26.1211C244.253 23.0612 244.48 19.8874 244.48 16.5996C244.48 16.1764 244.464 15.623 244.432 14.9395C244.432 14.2559 244.383 13.5234 244.285 12.7422C244.188 11.9609 244.041 11.1797 243.846 10.3984C243.683 9.61719 243.439 8.91732 243.113 8.29883C242.82 7.64779 242.43 7.12695 241.941 6.73633C241.486 6.31315 240.932 6.10156 240.281 6.10156C239.044 6.10156 237.954 6.72005 237.01 7.95703C236.098 9.16146 235.301 10.7077 234.617 12.5957C233.966 14.4837 233.413 16.5671 232.957 18.8457C232.534 21.1243 232.192 23.3216 231.932 25.4375C231.671 27.5208 231.492 29.3926 231.395 31.0527C231.297 32.7129 231.248 33.8522 231.248 34.4707Z" stroke="#50A060" stroke-width="3" mask="url(#path-1-outside-1_153_1341)"/>
<path d="M281.443 84.7637C281.443 86.6191 281.264 88.4746 280.906 90.3301C280.548 92.1855 280.011 93.9759 279.295 95.7012C278.611 97.459 277.749 99.0866 276.707 100.584C275.665 102.114 274.477 103.432 273.143 104.539C271.808 105.646 270.311 106.525 268.65 107.176C267.023 107.827 265.249 108.152 263.328 108.152C261.538 108.152 259.845 107.794 258.25 107.078C256.655 106.362 255.255 105.402 254.051 104.197C252.879 102.993 251.951 101.577 251.268 99.9492C250.584 98.3542 250.242 96.6615 250.242 94.8711C250.242 92.918 250.633 91.0462 251.414 89.2559C252.228 87.4655 253.286 85.8216 254.588 84.3242C255.89 82.8268 257.355 81.5085 258.982 80.3691C260.643 79.2298 262.335 78.3346 264.061 77.6836L264.354 78.2695C261.196 79.9948 258.755 82.3223 257.029 85.252C255.304 88.1816 254.441 91.4531 254.441 95.0664C254.441 96.5312 254.637 97.931 255.027 99.2656C255.451 100.633 256.069 101.837 256.883 102.879C257.697 103.921 258.706 104.751 259.91 105.369C261.147 106.02 262.563 106.346 264.158 106.346C266.372 106.346 268.211 105.743 269.676 104.539C271.141 103.335 272.312 101.821 273.191 99.998C274.07 98.2077 274.689 96.2546 275.047 94.1387C275.438 92.0228 275.633 90.0371 275.633 88.1816C275.633 86.196 275.47 84.2428 275.145 82.3223C274.852 80.4017 274.477 78.4811 274.021 76.5605C273.598 74.64 273.159 72.7194 272.703 70.7988C272.247 68.8783 271.873 66.9414 271.58 64.9883C270.896 65.8021 270.164 66.5833 269.383 67.332C268.602 68.0482 267.755 68.6829 266.844 69.2363C265.965 69.7572 265.021 70.1641 264.012 70.457C263.003 70.7826 261.945 70.9453 260.838 70.9453C259.178 70.9453 257.713 70.6361 256.443 70.0176C255.206 69.4316 254.165 68.6178 253.318 67.5762C252.472 66.5345 251.821 65.3301 251.365 63.9629C250.942 62.5957 250.73 61.1309 250.73 59.5684C250.73 57.8105 250.975 56.0853 251.463 54.3926C251.951 52.6999 252.635 51.1048 253.514 49.6074C254.393 48.11 255.434 46.7103 256.639 45.4082C257.843 44.1061 259.145 42.9668 260.545 41.9902L261.131 42.2832C259.731 44.3014 258.624 46.4824 257.811 48.8262C257.029 51.1374 256.639 53.5137 256.639 55.9551C256.639 56.9967 256.753 58.1198 256.98 59.3242C257.208 60.5286 257.566 61.6354 258.055 62.6445C258.576 63.6536 259.259 64.5 260.105 65.1836C260.984 65.8346 262.059 66.1602 263.328 66.1602C264.858 66.1602 266.29 65.8346 267.625 65.1836C268.96 64.5 270.18 63.6374 271.287 62.5957C271.189 61.3913 271.141 60.1868 271.141 58.9824C271.141 57.3223 271.255 55.597 271.482 53.8066C271.71 52.0163 272.117 50.3073 272.703 48.6797C273.322 47.0195 274.152 45.5221 275.193 44.1875C276.235 42.8203 277.586 41.7135 279.246 40.8672L279.637 41.0625C278.855 41.8763 278.204 42.7878 277.684 43.7969C277.163 44.7734 276.74 45.7988 276.414 46.873C276.121 47.9473 275.91 49.054 275.779 50.1934C275.682 51.3001 275.633 52.3906 275.633 53.4648C275.633 56.4596 275.926 59.2428 276.512 61.8145C277.13 64.3861 277.798 66.9089 278.514 69.3828C279.262 71.8568 279.93 74.3307 280.516 76.8047C281.134 79.3112 281.443 81.9642 281.443 84.7637Z" stroke="#50A060" stroke-width="3" mask="url(#path-1-outside-1_153_1341)"/>
</svg>
